<svg width="62" height="20" viewBox="0 0 62 20" fill="none" xmlns="http://www.w3.org/2000/svg">
<path d="M44.302 3.48633H47.8158L41.7013 18.6691H37.6409L31.5264 3.48633H35.0401L39.6631 15.01L44.302 3.48633Z" fill="#FF564F"/>
<path d="M3.20055 0.34668H0V18.6742H3.20055V0.34668Z" fill="#FF564F"/>
<path d="M11.9539 18.6742L4.94238 9.51046L11.9539 0.34668H15.9718L9.05055 9.51046L15.9718 18.6742H11.9539Z" fill="#FF564F"/>
<path d="M23.6312 3.08301C20.1281 3.08301 17.4901 5.01864 17.2991 7.89823L17.2778 8.23763H20.42L20.4731 7.98839C20.765 6.63609 21.869 5.89366 23.5781 5.89366C25.4358 5.89366 26.5026 6.82701 26.5026 8.46037V9.39902L22.559 9.62175C19.0135 9.82857 16.8691 11.5627 16.8691 14.2567C16.8691 17.0991 19.0028 19.003 22.1397 19.003C24.008 19.003 25.3721 18.4939 26.4867 17.3537V18.7431H29.6713V8.21642C29.6713 5.09819 27.2616 3.08301 23.6312 3.08301ZM26.4973 11.8597V12.8036C26.2903 14.8665 24.8625 16.1605 22.6758 16.2665C21.8318 16.309 21.1047 16.0809 20.627 15.6249C20.2502 15.2696 20.0538 14.7923 20.0538 14.2514C20.0538 13.0423 21.0835 12.2839 22.8934 12.1672L26.4973 11.8597Z" fill="#FF564F"/>
<path d="M55.9549 3.08301C52.4519 3.08301 49.8139 5.01864 49.6229 7.89823L49.6016 8.23763H52.7438L52.7969 7.98839C53.0888 6.63609 54.1928 5.89366 55.9019 5.89366C57.7596 5.89366 58.8264 6.82701 58.8264 8.46037V9.39902L54.8881 9.62175C51.3426 9.82857 49.1982 11.5627 49.1982 14.2567C49.1982 17.0991 51.3319 19.003 54.4688 19.003C56.3371 19.003 57.7012 18.4939 58.8158 17.3537V18.7431H62.0004V8.21642C61.9951 5.09819 59.5854 3.08301 55.9549 3.08301ZM58.8264 11.8597V12.8036C58.6194 14.8665 57.1917 16.1605 55.0049 16.2665C54.161 16.309 53.4338 16.0809 52.9561 15.6249C52.5793 15.2696 52.3829 14.7923 52.3829 14.2514C52.3829 13.0423 53.4126 12.2839 55.2225 12.1672L58.8264 11.8597Z" fill="#FF564F"/>
</svg>
